<?xml version="1.0" encoding="utf-8"?>
<!-- Generator: Adobe Illustrator 24.1.1, SVG Export Plug-In . SVG Version: 6.00 Build 0)  -->
<svg version="1.1" id="Capa_1" xmlns:svgjs="http://svgjs.com/svgjs"
	 xmlns="http://www.w3.org/2000/svg" xmlns:xlink="http://www.w3.org/1999/xlink" x="0px" y="0px" viewBox="0 0 512 512"
	 style="enable-background:new 0 0 512 512;" xml:space="preserve">
<style type="text/css">
	.st0{display:none;}
	.st1{display:inline;}
	.st2{fill:#005386;}
	.st3{fill:none;stroke:#005386;stroke-width:19;stroke-miterlimit:10;}
	.st4{fill:#005386;stroke:#005386;stroke-width:12;stroke-miterlimit:10;}
	.st5{fill:#005386;stroke:#005386;stroke-width:6;stroke-miterlimit:10;}
</style>
<g class="st0">
	<g class="st1">
		<g>
			<g>
				<path class="st2" d="M374.2,87.7h-36.3V71.5c0-5.2-5.7-7.6-11-7.6h-28.2c-6.7-19.1-23.4-28.6-42.5-28.6
					c-18.9-0.7-36,10.9-42.5,28.6H186c-5.2,0-10.5,2.4-10.5,7.6v16.2h-36.3c-21.5,0.2-39.1,17.2-40.1,38.7v273.4
					c0,21,19.1,36.3,40.1,36.3H374c21,0,40.1-15.3,40.1-36.3V126.4C413.3,104.9,395.7,88,374.2,87.7z M194.8,83H221
					c4.6-0.6,8.3-4,9.1-8.6c2.8-12.3,13.6-21.1,26.2-21.5c12.5,0.4,23.1,9.2,25.8,21.5c0.9,4.7,4.8,8.2,9.5,8.6h27.2v38.2h-124
					L194.8,83L194.8,83z M395.2,399.8c0,10.5-10.5,17.2-21,17.2H139.4c-10.5,0-21-6.7-21-17.2V126.4c1-10.9,10-19.4,21-19.6h36.3
					v24.3c0.5,5.3,5.1,9.3,10.5,9.1H327c5.5,0.3,10.2-3.6,11-9.1v-24.3h36.3c11,0.2,20,8.6,21,19.6L395.2,399.8L395.2,399.8z"/>
				<path class="st2" d="M220.1,248.6c-3.6-3.8-9.5-4-13.4-0.5l-30.5,29.1l-12.9-13.4c-3.6-3.8-9.5-4-13.4-0.5
					c-3.7,3.9-3.7,10,0,13.8l19.6,20c1.7,1.9,4.1,2.9,6.7,2.9c2.5,0,4.9-1.1,6.7-2.9l37.2-35.3c3.7-3.4,3.9-9.1,0.6-12.8
					C220.4,248.9,220.3,248.7,220.1,248.6z"/>
				<path class="st2" d="M357,269.1H247.3c-5.3,0-9.5,4.3-9.5,9.5c0,5.3,4.3,9.5,9.5,9.5H357c5.3,0,9.5-4.3,9.5-9.5
					C366.6,273.3,362.3,269.1,357,269.1z"/>
				<path class="st2" d="M220.1,172.2c-3.6-3.8-9.5-4-13.4-0.5l-30.5,29.1l-12.9-13.4c-3.6-3.8-9.5-4-13.4-0.5
					c-3.7,3.9-3.7,10,0,13.8l19.6,20c1.7,1.9,4.1,2.9,6.7,2.9c2.5,0,4.9-1.1,6.7-2.9l37.2-35.3c3.7-3.4,3.9-9.1,0.6-12.8
					C220.4,172.6,220.3,172.4,220.1,172.2z"/>
				<path class="st2" d="M357,192.7H247.3c-5.3,0-9.5,4.3-9.5,9.5s4.3,9.5,9.5,9.5H357c5.3,0,9.5-4.3,9.5-9.5S362.3,192.7,357,192.7
					z"/>
				<path class="st2" d="M220.1,324.9c-3.6-3.8-9.5-4-13.4-0.5l-30.5,29.1l-12.9-13.4c-3.6-3.8-9.5-4-13.4-0.5
					c-3.7,3.9-3.7,10,0,13.8l19.6,20c1.7,1.9,4.1,2.9,6.7,2.9c2.5,0,4.9-1.1,6.7-2.9l37.2-35.3c3.7-3.4,3.9-9.1,0.6-12.8
					C220.4,325.3,220.3,325.1,220.1,324.9z"/>
				<path class="st2" d="M357,345.4H247.3c-5.3,0-9.5,4.3-9.5,9.5c0,5.3,4.3,9.5,9.5,9.5H357c5.3,0,9.5-4.3,9.5-9.5
					C366.6,349.7,362.3,345.4,357,345.4z"/>
			</g>
		</g>
	</g>
</g>
<circle class="st3" cx="256.3" cy="256.3" r="245.3"/>
<g>
	<g>
		<g>
			<path class="st2" d="M292.7,119.4h-130c-4,0-7.2,3.3-7.2,7.2v93.9c0,4,3.3,7.2,7.2,7.2h130c4,0,7.2-3.3,7.2-7.2v-93.9
				C300,122.7,296.7,119.4,292.7,119.4z M285.5,213.3H169.9v-79.5h115.6V213.3z"/>
			<path class="st2" d="M350.5,415.6H104.9c-4,0-7.2,3.3-7.2,7.2c0,4,3.3,7.2,7.2,7.2h245.6c4,0,7.2-3.3,7.2-7.2
				C357.8,418.9,354.5,415.6,350.5,415.6z"/>
			<path class="st2" d="M404.4,167.9l-22.1-25.5c-0.9-1-2.1-1.6-3.4-1.5c-7.9,0.1-10.3,7.9-6.5,12.2l21,24.3
				c4.9,5.6,7.7,9.1,7.7,14.3h-20.2c-4.8,0-8.7,3.9-8.7,8.7V235c0,7.9,6.5,14.4,14.4,14.4h14.4v108.4c0,4-3.3,7.2-7.2,7.2h-16
				c-4.2,0-5.7-3.9-5.7-7.2v-94.3c0-12.7-12-21.3-23.2-21.3h-12.9V119.4c0-19.9-16.2-36.1-36.1-36.1H155.5
				c-19.9,0-36.1,16.2-36.1,36.1v281.2c0,7.3,5.9,7.4,15.6,7.6c5.3,0.1,12.6,0.1,20.5,0.1H300c8,0,15.2-0.1,20.5-0.1
				c9.8-0.1,15.6-0.3,15.6-7.6v-144H349c4.4,0,8.7,3.4,8.7,6.9v94.3c0,12.4,8.7,21.7,20.2,21.7h16c12,0,21.7-9.7,21.7-21.7V191.7
				C415.6,180.8,409.6,174,404.4,167.9z M321.6,393.8c-4.8,0.1-12.1,0.1-21.7,0.1H155.5c-9.6,0-16.9-0.1-21.7-0.1V119.4
				c0-12,9.7-21.7,21.7-21.7H300c12,0,21.7,9.7,21.7,21.7V393.8z M401.1,235h-14.4v-28.9h14.4V235z"/>
		</g>
		<line class="st4" x1="133.8" y1="286.9" x2="232.4" y2="286.9"/>
		<line class="st4" x1="126.7" y1="309.3" x2="195.4" y2="309.3"/>
		<line class="st4" x1="133.8" y1="331.7" x2="161" y2="331.7"/>
		<line class="st4" x1="289.3" y1="261" x2="289.3" y2="359.6"/>
		<circle class="st5" cx="232.6" cy="286.9" r="2.9"/>
		<circle class="st5" cx="195.7" cy="309.3" r="2.9"/>
		<circle class="st5" cx="161.1" cy="331.7" r="2.9"/>
		<circle class="st5" cx="289.3" cy="359.9" r="2.9"/>
		<circle class="st5" cx="289.3" cy="260.8" r="2.9"/>
	</g>
</g>
</svg>
