<?xml version="1.0" encoding="utf-8"?>
<!-- Generator: Adobe Illustrator 24.1.1, SVG Export Plug-In . SVG Version: 6.00 Build 0)  -->
<svg version="1.1" id="Capa_1" xmlns:svgjs="http://svgjs.com/svgjs"
	 xmlns="http://www.w3.org/2000/svg" xmlns:xlink="http://www.w3.org/1999/xlink" x="0px" y="0px" viewBox="0 0 512 512"
	 style="enable-background:new 0 0 512 512;" xml:space="preserve">
<style type="text/css">
	.st0{fill:none;stroke:#005386;stroke-width:19;stroke-miterlimit:10;}
	.st1{fill:#005386;}
</style>
<circle class="st0" cx="256.3" cy="256.3" r="245.3"/>
<path class="st1" d="M158,70c-22.6,0-39.1,2.9-50.4,12.8s-15.3,25.4-15.3,45.7v29.2H85c-8,0-14.6,6.6-14.6,14.6v58.4
	c0,8,6.6,14.6,14.6,14.6h7.3v124.2c0,8.9,2.8,16.4,7.3,22.1v21.7c0,12,9.9,21.9,21.9,21.9h29.2c12,0,21.9-9.9,21.9-21.9V406h160.7
	v7.3c0,12,9.9,21.9,21.9,21.9h29.2c12,0,21.9-9.9,21.9-21.9v-21.7c4.5-5.7,7.3-13.2,7.3-22.1V245.3h7.3c8,0,14.6-6.6,14.6-14.6
	v-58.4c0-8-6.6-14.6-14.6-14.6h-7.3v-21.9c0-19.3-1.5-35.1-9.4-47.3C396.5,76.4,382.2,70,362.6,70H158z M158,84.6h204.5
	c16.9,0,24.5,4,29.4,11.6s7.1,21.1,7.1,39.5v233.8c0,10.1-2.9,14.1-8.9,17.3s-16,4.6-27.6,4.6H143.4c-11.6,0-21.6-1.3-27.6-4.6
	s-8.9-7.2-8.9-17.3V128.4c0-18.4,3.3-28.4,10.3-34.5C124.1,87.9,136.8,84.6,158,84.6z M179.9,91.9c-8,0-14.6,6.6-14.6,14.6v14.6
	c0,8,6.6,14.6,14.6,14.6h153.4c8,0,14.6-6.6,14.6-14.6v-14.6c0-8-6.6-14.6-14.6-14.6H179.9z M179.9,106.5h153.4v14.6H179.9V106.5z
	 M150.7,143c-8.5,0-16.3,2.2-21.7,7.5c-5.4,5.4-7.5,13.2-7.5,21.7v87.7c0,8.5,2.2,16.3,7.5,21.7c5.4,5.4,13.2,7.5,21.7,7.5
	l204.5-0.5c6,0,12.4-2.3,18.3-6.8c5.9-4.6,11-12.2,11-21.9v-87.7c0-8.5-2.2-16.3-7.5-21.7c-5.4-5.4-13.2-7.5-21.7-7.5H150.7z
	 M150.7,157.7h204.5c6.1,0,9.2,1.5,11.2,3.4s3.4,5.1,3.4,11.2v87.7c0,4.9-2.1,7.8-5.3,10.3c-3.2,2.5-7.7,3.9-9.4,3.9l-204.5,0.5
	c-6.1,0-9.2-1.5-11.2-3.4s-3.4-5.1-3.4-11.2v-87.7c0-6.1,1.5-9.2,3.4-11.2S144.6,157.7,150.7,157.7z M85,172.3h7.3v58.4H85V172.3z
	 M413.7,172.3h7.3v58.4h-7.3V172.3z M154.4,311.1c-18.1,0-32.9,14.8-32.9,32.9s14.8,32.9,32.9,32.9s32.9-14.8,32.9-32.9
	S172.4,311.1,154.4,311.1z M351.6,311.1c-18.1,0-32.9,14.8-32.9,32.9s14.8,32.9,32.9,32.9s32.9-14.8,32.9-32.9
	S369.7,311.1,351.6,311.1z M154.4,325.7c10.2,0,18.3,8.1,18.3,18.3c0,10.2-8.1,18.3-18.3,18.3c-10.2,0-18.3-8.1-18.3-18.3
	C136.1,333.8,144.2,325.7,154.4,325.7z M351.6,325.7c10.2,0,18.3,8.1,18.3,18.3c0,10.2-8.1,18.3-18.3,18.3
	c-10.2,0-18.3-8.1-18.3-18.3C333.3,333.8,341.4,325.7,351.6,325.7z M114.2,401.9c8.8,3.3,18.7,4.1,29.2,4.1H158v7.3
	c0,4.1-3.2,7.3-7.3,7.3h-29.2c-4.1,0-7.3-3.2-7.3-7.3V401.9z M391.8,401.9v11.4c0,4.1-3.2,7.3-7.3,7.3h-29.2c-4.1,0-7.3-3.2-7.3-7.3
	V406h14.6C373,406,383,405.2,391.8,401.9z"/>
</svg>
