<?xml version="1.0" encoding="utf-8"?>
<!-- Generator: Adobe Illustrator 24.1.1, SVG Export Plug-In . SVG Version: 6.00 Build 0)  -->
<svg version="1.1" id="Capa_1" xmlns:svgjs="http://svgjs.com/svgjs"
	 xmlns="http://www.w3.org/2000/svg" xmlns:xlink="http://www.w3.org/1999/xlink" x="0px" y="0px" viewBox="0 0 512 512"
	 style="enable-background:new 0 0 512 512;" xml:space="preserve">
<style type="text/css">
	.st0{fill:none;stroke:#005386;stroke-width:19;stroke-miterlimit:10;}
	.st1{fill:#005386;}
</style>
<circle class="st0" cx="256.3" cy="256.3" r="245.3"/>
<g>
	<g>
		<path class="st1" d="M403.7,108.3C364.3,68.8,311.8,47.1,256,47.1s-108.3,21.7-147.7,61.2C68.8,147.7,47.1,200.2,47.1,256
			s21.7,108.3,61.2,147.7c39.5,39.5,91.9,61.2,147.7,61.2s108.3-21.7,147.7-61.2c39.5-39.5,61.2-91.9,61.2-147.7
			S443.2,147.7,403.7,108.3z M256,93.8c82.2,0,150.4,61.5,160.8,141L316.3,225c-11.3-21.8-34-36.8-60.3-36.8s-49,15-60.3,36.8
			l-100.5,9.8C105.6,155.4,173.8,93.8,256,93.8z M95.2,276.7l99.3,7.7c6.3,13.5,16.9,24.6,30,31.5l6.5,100.3
			C160.1,405.2,104.3,348.2,95.2,276.7z M256,277.1c-11.6,0-21.1-9.4-21.1-21.1c0-11.6,9.4-21.1,21.1-21.1s21.1,9.4,21.1,21.1
			S267.6,277.1,256,277.1z M281,416.2l6.5-100.3c13.1-6.9,23.7-18,30-31.5l99.3-7.7C407.7,348.2,351.9,405.2,281,416.2z"/>
	</g>
</g>
</svg>
