<?xml version="1.0" encoding="utf-8"?>
<!-- Generator: Adobe Illustrator 24.1.1, SVG Export Plug-In . SVG Version: 6.00 Build 0)  -->
<svg version="1.1" id="Capa_1" xmlns:svgjs="http://svgjs.com/svgjs"
	 xmlns="http://www.w3.org/2000/svg" xmlns:xlink="http://www.w3.org/1999/xlink" x="0px" y="0px" viewBox="0 0 512 512"
	 style="enable-background:new 0 0 512 512;" xml:space="preserve">
<style type="text/css">
	.st0{fill:#005386;}
	.st1{fill:none;stroke:#005386;stroke-width:19;stroke-miterlimit:10;}
</style>
<g>
	<g>
		<g>
			<g>
				<path class="st0" d="M374.2,87.7h-36.3V71.5c0-5.2-5.7-7.6-11-7.6h-28.2c-6.7-19.1-23.4-28.6-42.5-28.6
					c-18.9-0.7-36,10.9-42.5,28.6h-27.7c-5.2,0-10.5,2.4-10.5,7.6v16.2h-36.3c-21.5,0.2-39.1,17.2-40.1,38.7v273.4
					c0,21,19.1,36.3,40.1,36.3h234.8c21,0,40.1-15.3,40.1-36.3V126.4C413.3,104.9,395.7,88,374.2,87.7z M194.8,83H221
					c4.6-0.6,8.3-4,9.1-8.6c2.8-12.3,13.6-21.1,26.2-21.5c12.5,0.4,23.1,9.2,25.8,21.5c0.9,4.7,4.8,8.2,9.5,8.6h27.2v38.2H194.8V83z
					 M395.2,399.8c0,10.5-10.5,17.2-21,17.2H139.4c-10.5,0-21-6.7-21-17.2V126.4c1-10.9,10-19.4,21-19.6h36.3v24.3
					c0.5,5.3,5.1,9.3,10.5,9.1H327c5.5,0.3,10.2-3.6,11-9.1v-24.3h36.3c11,0.2,20,8.6,21,19.6L395.2,399.8L395.2,399.8z"/>
				<path class="st0" d="M220.1,248.6c-3.6-3.8-9.5-4-13.4-0.5l-30.5,29.1l-12.9-13.4c-3.6-3.8-9.5-4-13.4-0.5
					c-3.7,3.9-3.7,10,0,13.8l19.6,20c1.7,1.9,4.1,2.9,6.7,2.9c2.5,0,4.9-1.1,6.7-2.9l37.2-35.3c3.7-3.4,3.9-9.1,0.6-12.8
					C220.4,248.9,220.3,248.7,220.1,248.6z"/>
				<path class="st0" d="M357,269.1H247.3c-5.3,0-9.5,4.3-9.5,9.5c0,5.3,4.3,9.5,9.5,9.5H357c5.3,0,9.5-4.3,9.5-9.5
					C366.6,273.3,362.3,269.1,357,269.1z"/>
				<path class="st0" d="M220.1,172.2c-3.6-3.8-9.5-4-13.4-0.5l-30.5,29.1l-12.9-13.4c-3.6-3.8-9.5-4-13.4-0.5
					c-3.7,3.9-3.7,10,0,13.8l19.6,20c1.7,1.9,4.1,2.9,6.7,2.9c2.5,0,4.9-1.1,6.7-2.9l37.2-35.3c3.7-3.4,3.9-9.1,0.6-12.8
					C220.4,172.6,220.3,172.4,220.1,172.2z"/>
				<path class="st0" d="M357,192.7H247.3c-5.3,0-9.5,4.3-9.5,9.5s4.3,9.5,9.5,9.5H357c5.3,0,9.5-4.3,9.5-9.5S362.3,192.7,357,192.7
					z"/>
				<path class="st0" d="M220.1,324.9c-3.6-3.8-9.5-4-13.4-0.5l-30.5,29.1l-12.9-13.4c-3.6-3.8-9.5-4-13.4-0.5
					c-3.7,3.9-3.7,10,0,13.8l19.6,20c1.7,1.9,4.1,2.9,6.7,2.9c2.5,0,4.9-1.1,6.7-2.9l37.2-35.3c3.7-3.4,3.9-9.1,0.6-12.8
					C220.4,325.3,220.3,325.1,220.1,324.9z"/>
				<path class="st0" d="M357,345.4H247.3c-5.3,0-9.5,4.3-9.5,9.5c0,5.3,4.3,9.5,9.5,9.5H357c5.3,0,9.5-4.3,9.5-9.5
					C366.6,349.7,362.3,345.4,357,345.4z"/>
			</g>
		</g>
	</g>
</g>
<circle class="st1" cx="256.3" cy="256.3" r="245.3"/>
</svg>
