<?xml version="1.0" encoding="utf-8"?>
<!-- Generator: Adobe Illustrator 24.1.1, SVG Export Plug-In . SVG Version: 6.00 Build 0)  -->
<svg version="1.1" id="Capa_1" xmlns:svgjs="http://svgjs.com/svgjs"
	 xmlns="http://www.w3.org/2000/svg" xmlns:xlink="http://www.w3.org/1999/xlink" x="0px" y="0px" viewBox="0 0 512 512"
	 style="enable-background:new 0 0 512 512;" xml:space="preserve">
<style type="text/css">
	.st0{display:none;}
	.st1{display:inline;}
	.st2{fill:#005386;}
	.st3{fill:none;stroke:#005386;stroke-width:19;stroke-miterlimit:10;}
</style>
<g class="st0">
	<g class="st1">
		<g>
			<g>
				<path class="st2" d="M374.2,87.7h-36.3V71.5c0-5.2-5.7-7.6-11-7.6h-28.2c-6.7-19.1-23.4-28.6-42.5-28.6
					c-18.9-0.7-36,10.9-42.5,28.6H186c-5.2,0-10.5,2.4-10.5,7.6v16.2h-36.3c-21.5,0.2-39.1,17.2-40.1,38.7v273.4
					c0,21,19.1,36.3,40.1,36.3H374c21,0,40.1-15.3,40.1-36.3V126.4C413.3,104.9,395.7,88,374.2,87.7z M194.8,83H221
					c4.6-0.6,8.3-4,9.1-8.6c2.8-12.3,13.6-21.1,26.2-21.5c12.5,0.4,23.1,9.2,25.8,21.5c0.9,4.7,4.8,8.2,9.5,8.6h27.2v38.2h-124V83z
					 M395.2,399.8c0,10.5-10.5,17.2-21,17.2H139.4c-10.5,0-21-6.7-21-17.2V126.4c1-10.9,10-19.4,21-19.6h36.3v24.3
					c0.5,5.3,5.1,9.3,10.5,9.1H327c5.5,0.3,10.2-3.6,11-9.1v-24.3h36.3c11,0.2,20,8.6,21,19.6L395.2,399.8L395.2,399.8z"/>
				<path class="st2" d="M220.1,248.6c-3.6-3.8-9.5-4-13.4-0.5l-30.5,29.1l-12.9-13.4c-3.6-3.8-9.5-4-13.4-0.5
					c-3.7,3.9-3.7,10,0,13.8l19.6,20c1.7,1.9,4.1,2.9,6.7,2.9c2.5,0,4.9-1.1,6.7-2.9l37.2-35.3c3.7-3.4,3.9-9.1,0.6-12.8
					C220.4,248.9,220.3,248.7,220.1,248.6z"/>
				<path class="st2" d="M357,269.1H247.3c-5.3,0-9.5,4.3-9.5,9.5c0,5.3,4.3,9.5,9.5,9.5H357c5.3,0,9.5-4.3,9.5-9.5
					C366.6,273.3,362.3,269.1,357,269.1z"/>
				<path class="st2" d="M220.1,172.2c-3.6-3.8-9.5-4-13.4-0.5l-30.5,29.1l-12.9-13.4c-3.6-3.8-9.5-4-13.4-0.5
					c-3.7,3.9-3.7,10,0,13.8l19.6,20c1.7,1.9,4.1,2.9,6.7,2.9c2.5,0,4.9-1.1,6.7-2.9l37.2-35.3c3.7-3.4,3.9-9.1,0.6-12.8
					C220.4,172.6,220.3,172.4,220.1,172.2z"/>
				<path class="st2" d="M357,192.7H247.3c-5.3,0-9.5,4.3-9.5,9.5s4.3,9.5,9.5,9.5H357c5.3,0,9.5-4.3,9.5-9.5S362.3,192.7,357,192.7
					z"/>
				<path class="st2" d="M220.1,324.9c-3.6-3.8-9.5-4-13.4-0.5l-30.5,29.1l-12.9-13.4c-3.6-3.8-9.5-4-13.4-0.5
					c-3.7,3.9-3.7,10,0,13.8l19.6,20c1.7,1.9,4.1,2.9,6.7,2.9c2.5,0,4.9-1.1,6.7-2.9l37.2-35.3c3.7-3.4,3.9-9.1,0.6-12.8
					C220.4,325.3,220.3,325.1,220.1,324.9z"/>
				<path class="st2" d="M357,345.4H247.3c-5.3,0-9.5,4.3-9.5,9.5c0,5.3,4.3,9.5,9.5,9.5H357c5.3,0,9.5-4.3,9.5-9.5
					C366.6,349.7,362.3,345.4,357,345.4z"/>
			</g>
		</g>
	</g>
</g>
<circle class="st3" cx="256.3" cy="256.3" r="245.3"/>
<g>
	<path class="st2" d="M155.8,114.2c2.7,7.8,9.9,13,18,13h49.1c8.1,0,15.3-5.2,18-13c2.6-7.4,10.6-24.1,16.9-29.3
		c5.5-4.6,8-11.8,6.7-18.8c-1.3-6.8-6.1-12.2-12.7-14.4c-19.8-6.6-37.4-4.4-50.8,6.4c-2.4,1.9-5.6,1.9-8.1,0
		c-13.4-10.7-31-12.9-50.8-6.4c-6.6,2.2-11.4,7.6-12.7,14.4c-1.3,6.9,1.2,14.1,6.7,18.8C143,90.8,153.9,108.6,155.8,114.2z
		 M142.2,68.6c0.2-1.2,1.1-3.4,3.9-4.4c6.1-2,11.9-3,17.2-3c8.1,0,15.3,2.4,21.3,7.2c7.2,5.8,17.3,5.8,24.5,0
		c9.9-7.9,22.8-9.3,38.4-4.2c2.9,0.9,3.7,3.2,3.9,4.4c0.4,2.3-0.4,4.6-2.3,6.2c-10.1,8.5-19.1,30.2-20.8,35.1
		c-0.8,2.5-3.1,4.1-5.5,4.1h-49.1c-2.5,0-4.7-1.7-5.5-4.1c-2.8-8-15-27.7-23.8-35.1C142.6,73.2,141.8,70.9,142.2,68.6z"/>
	<path class="st2" d="M254.4,140.9c0-2.6-1.3-5.1-3.6-6.3c-2.5-1.4-4.6-0.9-6.3,0.1c0,0,0,0,0,0c-1-0.6-2.1-1-3.3-1h-79
		c-3.1,0-6,2.1-6.7,5.2c-0.9,4.3,2.3,8,6.4,8h79.2c0,0,0,0,0,0v6.5c0,0,0,0,0,0l-72.4,0c-3.1,0-6,2.1-6.7,5.2c-0.9,4.3,2.3,8,6.4,8
		h78.7c0,0,0,0,0,0c5.9,4.9,13.2,7.7,21,7.7c8.7,0,16.9-3.3,23.1-9.4c2.6-2.5,2.9-7,0.3-9.6c-2.6-2.6-6.8-2.6-9.4,0
		c-7.5,7.5-20.4,7.5-27.9,0.1c0,0,0,0,0,0L254.4,140.9z"/>
	<path class="st2" d="M188.4,219.6c-42.3,0-92.3,53.5-92.4,98.8c0,3.1,2.1,6,5.2,6.6c4.2,0.9,8-2.4,8-6.5c0-37.6,44.3-85.7,79-85.8
		c2.9,0,5.5-1.7,6.4-4.4C196.2,223.8,192.8,219.6,188.4,219.6z"/>
	<path class="st2" d="M439.3,282.3c0-18.2-41.5-23.1-66-23.1c-6.8,0-14.9,0.4-23.1,1.3c0,0,0,0,0,0c-8.9-16.3-20.6-30.3-35.4-41.6
		c0,0,0,0,0,0l-47.5-32.3c-7.9-6-20.3-13.2-34.6-13.2h-51.3c-12.7,0-25.2,4.3-35,12l-46.7,34C50.9,257.7,35.4,324.8,62.9,379
		c10,19.7,26.7,43.5,49.5,45.1c1.8,0.1,3.6,0.2,5.4,0.2h128.4c0,0,0,0,0,0c9.7,12,24.5,19.8,41.1,19.8c19.1,0,35.9-10.3,45.1-25.5
		c0,0,0,0,0,0c11.8,3.7,26.2,5.7,40.7,5.7c31.7,0,66-10.1,66-26.4l-0.1-37.1c0.1-0.7,0.1-1.8,0.1-2.5V282.3z M342.2,274.9
		c1.3-0.2,2.7-0.4,4.1-0.7c7.4-1.1,16.3-1.9,27-1.9c31.2,0,48.6,6.4,52.3,9.8c-0.1,0.1-0.3,0.3-0.4,0.4c-0.3,0.2-0.6,0.4-0.9,0.6
		c-0.4,0.3-1,0.6-1.5,0.9c-0.5,0.2-1,0.5-1.5,0.7c-0.7,0.3-1.5,0.6-2.3,0.9c-0.7,0.3-1.4,0.5-2.1,0.8c-1,0.3-2.1,0.6-3.2,0.9
		c-0.9,0.2-1.7,0.5-2.7,0.7c-1.3,0.3-2.7,0.6-4.1,0.9c-1.1,0.2-2.1,0.4-3.2,0.6c-1.6,0.3-3.4,0.5-5.1,0.8c-1.2,0.2-2.3,0.3-3.6,0.5
		c-2.1,0.2-4.4,0.4-6.7,0.6c-1.2,0.1-2.2,0.2-3.4,0.3c-3.6,0.2-7.4,0.3-11.5,0.3c-4.1,0-7.9-0.1-11.5-0.3c-1.2-0.1-2.3-0.2-3.4-0.3
		c-2.3-0.2-4.6-0.3-6.7-0.6c-1.3-0.1-2.4-0.3-3.6-0.5c-1.7-0.2-3.5-0.5-5.1-0.8c-1.1-0.2-2.2-0.4-3.2-0.6c-1.4-0.3-2.8-0.6-4.1-0.9
		c-1-0.2-1.8-0.5-2.7-0.7c-1.1-0.3-2.2-0.6-3.2-0.9c-0.8-0.3-1.4-0.5-2.1-0.8c-0.8-0.3-1.7-0.6-2.3-0.9c-0.6-0.2-1-0.5-1.5-0.7
		c-0.6-0.3-1.1-0.6-1.5-0.9c-0.3-0.2-0.7-0.4-0.9-0.6c-0.2-0.1-0.3-0.3-0.4-0.4c0.1-0.1,0.1-0.1,0.2-0.2c0.2-0.2,0.6-0.4,0.9-0.7
		c0.5-0.3,1.2-0.7,2-1.1c0.4-0.2,0.9-0.4,1.4-0.6c0.5-0.2,1.1-0.5,1.7-0.7c0.7-0.3,1.5-0.6,2.3-0.8c0.6-0.2,1.2-0.4,1.8-0.6
		c1.5-0.4,3.1-0.9,4.9-1.3c0.8-0.2,1.8-0.4,2.7-0.6C339.9,275.4,341,275.2,342.2,274.9z M245.1,359.7c-0.5,0.6-0.9,1.2-1.4,1.8
		c-1.2,1.7-2.2,3.5-3.2,5.3c-0.4,0.7-0.7,1.4-1,2.2c-0.8,1.6-1.4,3.3-2,5c-0.2,0.5-0.4,1-0.5,1.5c-0.7,2.2-1.2,4.4-1.6,6.7
		c-0.1,0.3-0.2,0.6-0.2,0.9c-0.1,0.4-0.1,0.7-0.1,1.1c-0.2,1.6-0.3,3.1-0.4,4.7c0,0.6-0.1,1.1-0.1,1.7c0,0.2,0,0.5,0,0.7
		c0,1,0.1,2.1,0.2,3.1c0.3,5.7,1.2,11.4,2.9,16.7c0,0,0,0,0,0H117.8c-1.5,0-3-0.1-4.5-0.2c-13-0.9-26.7-14.3-38.6-37.9
		c-24.6-48.6-10.7-108.8,32.8-143l46.7-34c7.7-6,17.3-9.3,27-9.3h51.3c10.7,0,20.4,5.7,26.9,10.7l47.5,32.3c0,0,0,0,0,0
		c11.8,9,21.6,20.1,29.3,33c0,0,0,0,0,0c-8.3,1.7-16.4,4.3-21.9,8.2c-0.2,0.1-0.3,0.2-0.5,0.3c-0.8,0.6-1.6,1.2-2.3,1.9
		c-0.3,0.3-0.6,0.6-0.8,0.9c-0.5,0.6-1,1.2-1.4,1.8c-0.4,0.6-0.7,1.3-1.1,2c-0.2,0.3-0.3,0.7-0.5,1c-0.4,1.1-0.6,2.3-0.6,3.6v60
		c0,0,0,0,0,0c-2.2-0.9-4.5-1.6-6.9-2.2c-0.3-0.1-0.6-0.2-0.9-0.2c-2.3-0.5-4.7-1-7.1-1.2c-0.3,0-0.5,0-0.8,0
		c-1.4-0.1-2.7-0.2-4.1-0.2c-0.7,0-1.4,0.1-2.1,0.1c-0.6,0-1.1,0-1.7,0.1c-2.3,0.2-4.7,0.4-6.9,0.9c0,0-0.1,0-0.1,0
		c-0.2,0-0.3,0.1-0.5,0.2c-2.1,0.5-4.1,1.1-6,1.8c-0.7,0.3-1.4,0.5-2.1,0.8c-2,0.8-3.9,1.7-5.7,2.7c-0.6,0.3-1.2,0.7-1.8,1.1
		c-1.3,0.8-2.6,1.7-3.9,2.6c-0.7,0.5-1.5,1.1-2.2,1.6c-1.6,1.3-3,2.6-4.4,4c-0.6,0.6-1.2,1.3-1.8,1.9
		C247,357.3,246.1,358.5,245.1,359.7z M326.8,395.4c0,0.2-0.1,0.4-0.1,0.6c-0.1,1.2-0.3,2.4-0.6,3.6c0,0.2-0.1,0.3-0.1,0.5
		c-0.1,1.1-0.7,2.7-1,3.7l0,0.1c-0.4,1.3-0.9,2.5-1.5,3.8c-6.3,13.7-20,23.2-36,23.2c-21.7,0-39.3-17.5-39.6-39.1c0-0.5,0-1,0-1.5
		c0-0.7,0.1-1.4,0.1-2.2c0-0.6,0.1-1.2,0.2-1.8c0.1-0.6,0.2-1.2,0.3-1.8c0.3-1.7,0.7-3.4,1.2-5.1c0.1-0.2,0.1-0.3,0.2-0.5
		c0.6-1.7,1.2-3.3,2-4.8c0.1-0.2,0.1-0.3,0.2-0.4c3.6-7,9.2-12.9,16-16.8c0,0,0,0,0.1,0c1.5-0.9,3.2-1.6,4.8-2.3
		c0.4-0.2,0.9-0.3,1.3-0.5c1.5-0.5,3-1,4.5-1.3c0.2,0,0.4-0.1,0.6-0.2c1.9-0.4,3.8-0.6,5.7-0.7c0.4,0,0.7,0,1.1-0.1
		c1.9-0.1,3.9,0,5.8,0.2c0.1,0,0.2,0,0.3,0.1c2,0.3,4,0.7,6,1.2c0,0,0.1,0,0.1,0c2,0.6,4,1.3,6,2.3c1.8,0.8,3.5,1.8,5.1,2.9l0.3,0.2
		c0.2,0.2,0.4,0.3,0.7,0.5c1.1,0.8,2.1,1.6,3.2,2.5c0.2,0.2,0.4,0.4,0.6,0.5c1.1,1,2.1,2,3,3.1c0.1,0.1,0.2,0.2,0.3,0.3
		c2.1,2.4,3.9,5.1,5.4,8c0.3,0.7,0.7,1.3,1,2c0.5,1.2,0.9,2.3,1.3,3.5c0,0.1,0.1,0.2,0.1,0.3c0.4,1.2,0.7,2.4,1,3.6
		c0,0.1,0.1,0.2,0.1,0.3c0.3,1.2,0.4,2.4,0.6,3.7c0,0.1,0,0.2,0.1,0.3c0.1,1.3,0.2,2.7,0.2,4.1C327.1,392.6,327,394,326.8,395.4z
		 M426.1,358.8c0,1.3,0.1,2.5,0,3.8c0,0.7-0.1,1.3-0.2,2c0,1.2,0,2.4,0,3.6v5.9c0,0.7,0,1.5,0,2.2c0,0,0,0,0,0c0,0,0,0,0,0l0,21
		c0,0,0,0,0,0c-1.7,4.1-21.7,13.7-52.9,13.7c-12.5,0-25-1.7-35.2-4.7c0,0,0,0,0,0c0.6-2.1,1.1-4.3,1.5-6.6c0.1-0.5,0.2-1.1,0.2-1.6
		c0.3-2.3,0.5-4.6,0.5-6.9c0-1.7-0.1-3.4-0.3-5.1c-0.1-0.6-0.2-1.2-0.2-1.8c-0.1-0.8-0.2-1.7-0.3-2.5c0,0,0,0,0,0
		c10,1.8,21.6,2.8,33.8,2.8c10.8,0,24.9-1,37.3-3.6c0.1-0.4,0.2-0.9,0.2-1.2c0.1-0.7,0.1-1.5,0-2.2c0-1.5-0.1-3.1-0.2-4.6
		c-0.1-1.7,0.1-3.5-0.1-5.3c0-0.3-0.2-1-0.3-1.2c0-0.1-0.1-0.2-0.1-0.2c-7.5,2.3-17.5,4.3-29.4,4.9c-2.4,0.1-4.8,0.2-7.4,0.2
		c-14.5,0-28.9-2.2-39.9-6.1c0,0,0,0,0,0c-0.8-1.4-1.7-2.8-2.6-4.1c-0.1-0.2-0.3-0.4-0.4-0.6c-0.8-1.2-1.7-2.3-2.6-3.4
		c-0.3-0.3-0.6-0.6-0.9-0.9c-0.8-0.9-1.6-1.8-2.5-2.7c-0.4-0.4-0.9-0.8-1.4-1.3c-0.8-0.8-1.6-1.5-2.5-2.2c0,0,0,0,0,0
		c0-2.6,0-8.3,0-15.5c0,0,0,0,0,0c0-0.1,0-0.1,0-0.2c-0.1-0.2-0.1-0.4-0.1-0.6c0-0.3,0-0.7,0.1-1c0-0.1-0.1-0.3,0-0.4v-0.1
		c0-0.2,0-0.5,0.1-0.7c-0.2-0.7-0.2-1.5-0.2-2.2c0-0.1,0-0.1,0-0.2c0-1.4,0-2.8,0.2-4.2c0,0,0,0,0,0c-0.1-2-0.1-6.2-0.1-6.2
		c0-7.5,0-15.1,0-21.5c0,0,0,0,0.1,0c1.7,0.7,3.5,1.5,5.5,2.1c0.1,0,0.2,0.1,0.3,0.1c1.8,0.6,3.7,1.1,5.6,1.6
		c0.6,0.2,1.3,0.3,1.9,0.4c1.4,0.3,2.8,0.6,4.3,0.9c0.7,0.1,1.4,0.3,2.1,0.4c1.6,0.3,3.2,0.5,4.8,0.8c0.5,0.1,1,0.2,1.5,0.2
		c2.1,0.3,4.3,0.5,6.4,0.7c0.5,0.1,1.1,0.1,1.6,0.1c1.6,0.1,3.2,0.3,4.8,0.4c0.7,0,1.4,0.1,2,0.1c1.5,0.1,2.9,0.2,4.3,0.2
		c0.6,0,1.2,0,1.8,0.1c1.9,0.1,3.8,0.1,5.6,0.1c1.8,0,3.7,0,5.6-0.1c0.6,0,1.2,0,1.8-0.1c1.4-0.1,2.8-0.1,4.3-0.2
		c0.7,0,1.4-0.1,2.1-0.1c1.6-0.1,3.2-0.2,4.8-0.4c0.5,0,1-0.1,1.6-0.1c2.1-0.2,4.3-0.5,6.4-0.7c0.5-0.1,1-0.2,1.6-0.2
		c1.6-0.2,3.2-0.5,4.8-0.8c0.7-0.1,1.4-0.3,2.1-0.4c1.5-0.3,2.9-0.6,4.3-0.9c0.6-0.2,1.3-0.3,1.9-0.4c2-0.5,3.9-1,5.7-1.6
		c0.1,0,0.2-0.1,0.3-0.1c1.9-0.6,3.7-1.3,5.4-2.1c0,0,0,0,0.1,0l0,21c0,0,0,0,0,0c-1.7,4.1-21.7,13.7-52.9,13.7
		c-14.8,0-27.1-2.2-36.1-4.8l-0.1,0.2c-0.1,0.1-0.2,0.2-0.3,0.3c-0.1,1.3-0.3,2.6-0.6,3.9c-0.1,0.6-0.2,1.3-0.3,1.9
		c0.1,2.3,0,4.6-0.2,7c0.3,0.1,0.5,0.1,0.8,0.2c0.5,0.1,1,0.3,1.5,0.4c2,0.5,4,1,6.1,1.4c0.4,0.1,0.9,0.2,1.3,0.2
		c1.7,0.3,3.4,0.6,5.1,0.9c0.7,0.1,1.5,0.2,2.2,0.3c1.5,0.2,3,0.4,4.5,0.5c0.8,0.1,1.6,0.2,2.4,0.2c1.6,0.1,3.1,0.2,4.7,0.3
		c0.7,0,1.4,0.1,2.1,0.1c2.3,0.1,4.5,0.2,6.8,0.2s4.5-0.1,6.8-0.2c0.7,0,1.4-0.1,2.1-0.1c1.6-0.1,3.1-0.2,4.6-0.3
		c0.8-0.1,1.6-0.2,2.4-0.2c1.5-0.2,3-0.3,4.4-0.5c0.8-0.1,1.5-0.2,2.3-0.3c1.7-0.3,3.4-0.5,5-0.9c0.5-0.1,0.9-0.2,1.4-0.3
		c2.1-0.4,4.1-0.9,6.1-1.4c0.6-0.1,1.1-0.3,1.6-0.4c1.4-0.4,2.8-0.8,4.2-1.2c0.7-0.2,1.3-0.4,2-0.6c1.2-0.4,2.4-0.8,3.5-1.3
		c0.6-0.2,1.2-0.5,1.8-0.7c1.2-0.5,2.3-1,3.4-1.6c0.3-0.2,0.7-0.3,1.1-0.5l0,22.8c0,0.2,0.1,0.4,0.1,0.6c0,0.3,0,0.5-0.1,0.8
		C426.1,358.7,426.1,358.8,426.1,358.8z"/>
</g>
<path class="st2" d="M292.8,390.5c-2-1.4-4.5-2.1-6.9-2.7c-0.5-0.1-1-0.3-1.6-0.4c-2.9-0.9-4.8-2.6-5.1-4.6
	c-0.2-1.6,0.8-3.2,2.6-4.2c0.4-0.2,0.8-0.4,1.3-0.5v3.6c0,1.3,1.1,2.4,2.4,2.4c1.3,0,2.4-1.1,2.4-2.4v-3.4c1.4,0.3,2.8,0.9,3.9,1.6
	c1.1,0.7,2.6,0.3,3.3-0.8c0.7-1.1,0.3-2.6-0.8-3.3c-1.8-1.1-4-2-6.4-2.4v-1.7c0-1.3-1.1-2.4-2.4-2.4c-1.3,0-2.4,1.1-2.4,2.4v1.6
	c-1.3,0.2-2.5,0.5-3.6,1.2c-3.5,1.9-5.5,5.4-5.1,8.9c0.4,4,3.6,7.2,8.5,8.7c0.1,0,0.1,0,0.2,0v11.4c-2-0.3-3.6-1.2-4.2-2.2
	c-0.6-1.2-2.1-1.6-3.3-1c-1.2,0.6-1.6,2.1-1,3.3c1.5,2.8,4.9,4.4,8.5,4.8v2.5c0,1.3,1.1,2.4,2.4,2.4c1.3,0,2.4-1.1,2.4-2.4v-2.7
	c0.5-0.1,1-0.2,1.5-0.4c3.8-1.2,6.6-4.5,7.2-8.4C297.1,395.8,295.7,392.5,292.8,390.5z M291.8,398.6c-0.3,2.1-1.8,3.8-3.8,4.5
	c0,0,0,0,0,0v-9.6c0.8,0.3,1.5,0.6,2.1,1C292,395.8,291.9,397.8,291.8,398.6z"/>
<path class="st2" d="M222,318.1c-5.5-3.7-12.3-5.6-18.9-7.4c-1.4-0.4-2.9-0.8-4.3-1.2c-8-2.4-13.2-7-13.8-12.5
	c-0.5-4.4,2.2-8.7,7.1-11.4c1-0.6,2.2-1,3.4-1.3v9.8c0,3.6,2.9,6.6,6.6,6.6c3.6,0,6.6-2.9,6.6-6.6v-9.3c3.8,0.9,7.6,2.5,10.6,4.3
	c3.1,1.9,7.2,0.9,9-2.2c1.9-3.1,0.9-7.2-2.2-9c-4.9-2.9-11-5.4-17.5-6.5v-4.7c0-3.6-2.9-6.6-6.6-6.6c-3.6,0-6.6,2.9-6.6,6.6v4.3
	c-3.5,0.5-6.8,1.5-9.8,3.2c-9.6,5.3-14.9,14.6-13.8,24.3c1.2,10.9,9.8,19.8,23.2,23.7c0.1,0,0.3,0.1,0.5,0.1v31
	c-5.4-0.9-9.9-3.2-11.4-6c-1.7-3.2-5.6-4.5-8.9-2.8c-3.2,1.7-4.5,5.6-2.8,8.9c4,7.7,13.3,12.1,23.1,13.2v6.9c0,3.6,2.9,6.6,6.6,6.6
	c3.6,0,6.6-2.9,6.6-6.6V366c1.4-0.3,2.7-0.6,4-1c10.3-3.3,18-12.2,19.6-22.9C233.7,332.4,229.8,323.4,222,318.1z M219.2,340.2
	c-0.8,5.7-4.9,10.5-10.5,12.2c0,0,0,0,0,0v-26.3c2.2,0.8,4.2,1.7,5.8,2.8C219.7,332.5,219.6,338,219.2,340.2z"/>
<path d="M325.5,335c0.5,0.2,1,0.3,1.5,0.5c0.2,0.1,0.5,0.1,0.7,0.1c1.4,0,2.7-1.2,3.1-3c0.4-2.1-0.6-4.2-2.3-4.7
	c-0.5-0.1-0.9-0.3-1.3-0.4c-1.7-0.6-3.4,0.7-3.9,2.8C322.9,332.3,323.9,334.4,325.5,335z"/>
<path class="st2" d="M325.5,336.3c0.7,0.2,1.4,0.4,2.1,0.6c0.3,0.1,0.7,0.1,1,0.1c2,0,3.7-1.6,4.2-4.1c0.6-2.9-0.9-5.7-3.2-6.4
	c-0.6-0.2-1.2-0.4-1.8-0.6c-2.3-0.7-4.7,0.9-5.3,3.8C321.8,332.6,323.2,335.5,325.5,336.3z"/>
<path class="st2" d="M416.3,377c0.7,0.2,1.4,0.4,2.1,0.6c0.3,0.1,0.7,0.1,1,0.1c2,0,3.7-1.6,4.2-4.1c0.6-2.9-0.9-5.7-3.2-6.4
	c-0.6-0.2-1.2-0.4-1.8-0.6c-2.3-0.7-4.7,0.9-5.3,3.8C412.6,373.4,414,376.3,416.3,377z"/>
</svg>
